<svg width="39" height="39" viewBox="0 0 39 39" fill="none" xmlns="http://www.w3.org/2000/svg">
<circle cx="19.5" cy="19.5" r="19.5" fill="#582C83"/>
<path fill-rule="evenodd" clip-rule="evenodd" d="M16.9091 23.7348C16.5032 24.1094 15.8706 24.0841 15.496 23.6783L12.2652 20.1783C11.9116 19.7953 11.9116 19.2048 12.2652 18.8218L15.496 15.3217C15.8706 14.9159 16.5032 14.8906 16.9091 15.2652C17.3149 15.6398 17.3402 16.2724 16.9656 16.6783L15.284 18.5L25 18.5C25.5523 18.5 26 18.9477 26 19.5C26 20.0523 25.5523 20.5 25 20.5L15.284 20.5L16.9656 22.3217C17.3402 22.7275 17.3149 23.3602 16.9091 23.7348Z" fill="white"/>
</svg>
