<svg width="39" height="39" viewBox="0 0 39 39" fill="none" xmlns="http://www.w3.org/2000/svg">
<circle cx="19.5" cy="19.5" r="19.5" fill="#582C83"/>
<path fill-rule="evenodd" clip-rule="evenodd" d="M21.0909 15.2652C21.4968 14.8906 22.1294 14.9159 22.504 15.3217L25.7348 18.8217C26.0884 19.2047 26.0884 19.7952 25.7348 20.1782L22.504 23.6783C22.1294 24.0841 21.4968 24.1094 21.091 23.7348C20.6851 23.3602 20.6598 22.7276 21.0344 22.3217L22.716 20.5L13 20.5C12.4477 20.5 12 20.0523 12 19.5C12 18.9477 12.4477 18.5 13 18.5L22.716 18.5L21.0344 16.6783C20.6598 16.2725 20.6851 15.6398 21.0909 15.2652Z" fill="white"/>
</svg>
